<svg width="32" height="32" viewBox="0 0 32 32" fill="none" xmlns="http://www.w3.org/2000/svg">
<circle cx="16" cy="16" r="16" fill="#D9D9D9"/>
<path d="M10 22V23C10 23.2833 9.90417 23.5208 9.7125 23.7125C9.52083 23.9042 9.28333 24 9 24H8C7.71667 24 7.47917 23.9042 7.2875 23.7125C7.09583 23.5208 7 23.2833 7 23V15L9.1 9C9.2 8.7 9.37917 8.45833 9.6375 8.275C9.89583 8.09167 10.1833 8 10.5 8H21.5C21.8167 8 22.1042 8.09167 22.3625 8.275C22.6208 8.45833 22.8 8.7 22.9 9L25 15V23C25 23.2833 24.9042 23.5208 24.7125 23.7125C24.5208 23.9042 24.2833 24 24 24H23C22.7167 24 22.4792 23.9042 22.2875 23.7125C22.0958 23.5208 22 23.2833 22 23V22H10ZM9.8 13H22.2L21.15 10H10.85L9.8 13ZM11.5 19C11.9167 19 12.2708 18.8542 12.5625 18.5625C12.8542 18.2708 13 17.9167 13 17.5C13 17.0833 12.8542 16.7292 12.5625 16.4375C12.2708 16.1458 11.9167 16 11.5 16C11.0833 16 10.7292 16.1458 10.4375 16.4375C10.1458 16.7292 10 17.0833 10 17.5C10 17.9167 10.1458 18.2708 10.4375 18.5625C10.7292 18.8542 11.0833 19 11.5 19ZM20.5 19C20.9167 19 21.2708 18.8542 21.5625 18.5625C21.8542 18.2708 22 17.9167 22 17.5C22 17.0833 21.8542 16.7292 21.5625 16.4375C21.2708 16.1458 20.9167 16 20.5 16C20.0833 16 19.7292 16.1458 19.4375 16.4375C19.1458 16.7292 19 17.0833 19 17.5C19 17.9167 19.1458 18.2708 19.4375 18.5625C19.7292 18.8542 20.0833 19 20.5 19ZM9 20H23V15H9V20Z" fill="#745712"/>
</svg>
